<svg id="Layer_1" data-name="Layer 1" xmlns="http://www.w3.org/2000/svg" viewBox="0 0 291.39 112.9"><title>dive_logo</title><path d="M318.72,327.55h-37a2.38,2.38,0,0,0-2.38,2.38V438.07a2.38,2.38,0,0,0,2.38,2.38h37A32.25,32.25,0,0,0,351,408.19V359.81A32.25,32.25,0,0,0,318.72,327.55Zm8.06,83.87q0,8.07-8.06,8.06H303.51v-71h15.21q8.05,0,8.06,8.06Zm111.08-81.83,9.55,66.51,9.23-66.5a2.38,2.38,0,0,1,2.36-2.05h21.61a2.38,2.38,0,0,1,2.34,2.83L462.1,438.52a2.39,2.39,0,0,1-2.34,1.93h-25a2.37,2.37,0,0,1-2.33-1.93L411.54,330.38a2.38,2.38,0,0,1,2.34-2.83h21.63A2.38,2.38,0,0,1,437.86,329.59Zm132.85.34v16.21a2.39,2.39,0,0,1-2.39,2.38H524.16v25h36.1a2.37,2.37,0,0,1,2.38,2.38v16.2a2.37,2.37,0,0,1-2.38,2.38h-36.1v25h44.16a2.39,2.39,0,0,1,2.39,2.38v16.21a2.39,2.39,0,0,1-2.39,2.38h-66a2.39,2.39,0,0,1-2.38-2.38V329.93a2.39,2.39,0,0,1,2.38-2.38h66A2.39,2.39,0,0,1,570.71,329.93Zm-198-2.38h19.43a2.38,2.38,0,0,1,2.38,2.38V438.07a2.38,2.38,0,0,1-2.38,2.38H372.71a2.39,2.39,0,0,1-2.38-2.38V329.93A2.39,2.39,0,0,1,372.71,327.55Z" transform="translate(-279.32 -327.55)"/></svg>